<?xml version="1.0" encoding="iso-8859-1"?>
<!-- Generator: Adobe Illustrator 19.0.0, SVG Export Plug-In . SVG Version: 6.00 Build 0)  -->
<svg version="1.1" id="Layer_1" xmlns="http://www.w3.org/2000/svg" xmlns:xlink="http://www.w3.org/1999/xlink" x="0px" y="0px"
	 viewBox="0 0 512 512" style="enable-background:new 0 0 512 512;" xml:space="preserve">
<g>
	<g>
		<path d="M292.288,262.416l-40.008-40.008c-3.116-3.124-8.188-3.124-11.312,0c-3.124,3.124-3.124,8.188,0,11.312l40.008,40.008
			c1.564,1.564,3.608,2.344,5.656,2.344c2.048,0,4.096-0.78,5.656-2.344C295.412,270.604,295.412,265.54,292.288,262.416z"/>
	</g>
</g>
<g>
	<g>
		<path d="M256,0C141.304,0,48,114.84,48,256s93.304,256,208,256c114.688,0,208-114.84,208-256S370.688,0,256,0z M377.368,391.304
			L212.212,226.14c-3.124-3.124-8.188-3.124-11.312,0c-3.124,3.124-3.124,8.188,0,11.312l167.008,167.016
			C339.032,441.256,299.528,464,256,464c-88.228,0-160-93.308-160-208c0-49.736,13.508-95.428,35.992-131.256l88.976,88.976
			c1.564,1.564,3.608,2.344,5.656,2.344c2.048,0,4.096-0.78,5.656-2.344c3.124-3.124,3.124-8.188,0-11.312l-91.08-91.084
			C170.3,72.312,210.996,48,256,48c88.224,0,160,93.308,160,208C416,307.636,401.416,354.9,377.368,391.304z"/>
	</g>
</g>
<g>
</g>
<g>
</g>
<g>
</g>
<g>
</g>
<g>
</g>
<g>
</g>
<g>
</g>
<g>
</g>
<g>
</g>
<g>
</g>
<g>
</g>
<g>
</g>
<g>
</g>
<g>
</g>
<g>
</g>
</svg>
